<svg width="90" height="90" viewBox="0 0 90 90" fill="none" xmlns="http://www.w3.org/2000/svg">
<path d="M24.5168 66.0647C23.9678 65.5345 23.5949 64.5395 23.7598 62.8056C23.9229 61.0907 24.5978 58.9047 25.7983 56.3721C28.1926 51.3215 32.5284 45.2035 38.2644 39.2638C44.0003 33.324 49.9632 28.7774 54.9272 26.2083C57.4164 24.9201 59.5775 24.1694 61.2856 23.9465C63.0127 23.7212 64.0201 24.0592 64.5691 24.5893C65.1181 25.1195 65.4911 26.1145 65.3261 27.8484C65.163 29.5632 64.4882 31.7493 63.2876 34.2819C60.8934 39.3325 56.5576 45.4504 50.8216 51.3902C45.0857 57.3299 39.1228 61.8766 34.1588 64.4457C31.6696 65.7339 29.5085 66.4846 27.8004 66.7075C26.0732 66.9328 25.0658 66.5948 24.5168 66.0647Z" stroke="white" stroke-width="3"/>
<path d="M66.8766 66.894C66.4791 67.3056 65.5892 67.6441 63.7809 67.348C62.027 67.0608 59.7607 66.2228 57.1135 64.8344C51.8372 62.0672 45.3574 57.2787 38.9656 51.1063C32.5738 44.9338 27.5621 38.625 24.6124 33.4485C23.1324 30.8513 22.2159 28.6157 21.8676 26.8728C21.5086 25.076 21.8158 24.1748 22.2133 23.7632C22.6108 23.3516 23.5007 23.0131 25.309 23.3092C27.063 23.5963 29.3292 24.4343 31.9765 25.8227C37.2528 28.59 43.7326 33.3784 50.1244 39.5509C56.5162 45.7234 61.5279 52.0322 64.4776 57.2087C65.9575 59.8059 66.8741 62.0415 67.2223 63.7844C67.5813 65.5812 67.2741 66.4824 66.8766 66.894Z" stroke="white" stroke-width="3"/>
<path d="M46.372 48.1607C45.1555 49.4205 43.2764 49.4376 42.1759 48.375C41.0755 47.3123 41.0271 45.4337 42.2436 44.174C43.4602 42.9142 45.3393 42.897 46.4397 43.9597C47.5402 45.0224 47.5886 46.9009 46.372 48.1607Z" stroke="white" stroke-width="2.5"/>
</svg>
